# xmcd
#
# Track frame offsets:
#	150
#	15119
#	28361
#	41157
#	53927
#	65975
#	79336
#	93683
#	107949
#	119427
#	134147
#	149104
#	164207
#	176486
#	188977
#	203801
#	218941
#
# Disc length: 3074 seconds
#
# Revision: 0
# Processed by: cddbd v1.5.2PL0 Copyright (c) Steve Scherf et al.
# Submitted via: audiograbber 1.83.01
#
DISCID=1b0c0011
DTITLE=Harry Torrani - The Greatest Yodeller of Them All Disc Three
DYEAR=2011
DGENRE=Country
TTITLE0=The Lonesome Yodeller
TTITLE1=My Lancashire Yodelling Lass
TTITLE2=Log Cabin Yodel
TTITLE3=Yodelling to Carolina
TTITLE4=Scottie the Yodeller
TTITLE5=Mountain Spook Yodel
TTITLE6=Yodelling Bunkhouse Boy
TTITLE7=My Yodelling Lady
TTITLE8=Cuckoo Waltz
TTITLE9=Lonesome Baby
TTITLE10=The Yodelling Monster
TTITLE11=The Yodelling Hobo
TTITLE12=Yodel All Day
TTITLE13=Yodeller's Dream Girl
TTITLE14=Mississippi Yodel
TTITLE15=Mammy's Yodel
TTITLE16=Hear the Yodeller
EXTD=Original Recordings 1931 - 1941
EXTT0=
EXTT1=
EXTT2=
EXTT3=
EXTT4=
EXTT5=
EXTT6=
EXTT7=
EXTT8=
EXTT9=
EXTT10=
EXTT11=
EXTT12=
EXTT13=
EXTT14=
EXTT15=
EXTT16=
PLAYORDER=
